<svg xmlns="http://www.w3.org/2000/svg" viewBox="0 0 100 100">
  <rect width="100" height="100" rx="18" fill="#1A433A" />
  <path
    d="M50 16 L81.44 34 L81.44 70 L50 88 L18.56 70 L18.56 34 Z M50 52 L50 16 M50 52 L81.44 70 M50 52 L18.56 34"
    stroke="#F8FAFC"
    stroke-width="6"
    stroke-linejoin="round"
    stroke-linecap="round"
    fill="none"
  />
  <g fill="#FF701A">
    <rect x="45.5" y="11.5" width="9" height="9" rx="1.5" transform="rotate(45 50 16)" />
    <rect x="76.94" y="29.5" width="9" height="9" rx="1.5" transform="rotate(45 81.44 34)" />
    <rect x="76.94" y="65.5" width="9" height="9" rx="1.5" transform="rotate(45 81.44 70)" />
    <rect x="45.5" y="83.5" width="9" height="9" rx="1.5" transform="rotate(45 50 88)" />
    <rect x="14.06" y="65.5" width="9" height="9" rx="1.5" transform="rotate(45 18.56 70)" />
    <rect x="14.06" y="29.5" width="9" height="9" rx="1.5" transform="rotate(45 18.56 34)" />
    <rect x="45.5" y="47.5" width="9" height="9" rx="1.5" transform="rotate(45 50 52)" />
  </g>
</svg>
